<svg height="1502" width="720" xmlns="http://www.w3.org/2000/svg">
<rect height="1502" fill="#555" width="720"></rect>
<text fill="#7f7" font-family="Courier New" font-size="12" xml:space="preserve">
<tspan x="10" y="26">15 megabytes installed</tspan>
<tspan x="10" y="42"></tspan>
<tspan x="10" y="58">node_modules</tspan>
<tspan x="10" y="74">└─┬ gulp-s3-upload@1.6.4 </tspan>
<tspan x="10" y="90">  ├─┬ aws-sdk@2.6.15 </tspan>
<tspan x="10" y="106">  │ ├─┬ buffer@4.9.1 </tspan>
<tspan x="10" y="122">  │ │ ├── base64-js@1.2.0 </tspan>
<tspan x="10" y="138">  │ │ ├── ieee754@1.1.8 </tspan>
<tspan x="10" y="154">  │ │ └── isarray@1.0.0 </tspan>
<tspan x="10" y="170">  │ ├── crypto-browserify@1.0.9 </tspan>
<tspan x="10" y="186">  │ ├── jmespath@0.15.0 </tspan>
<tspan x="10" y="202">  │ ├── querystring@0.2.0 </tspan>
<tspan x="10" y="218">  │ ├── sax@1.1.5 </tspan>
<tspan x="10" y="234">  │ ├─┬ url@0.10.3 </tspan>
<tspan x="10" y="250">  │ │ └── punycode@1.3.2 </tspan>
<tspan x="10" y="266">  │ ├── xml2js@0.4.15 </tspan>
<tspan x="10" y="282">  │ └─┬ xmlbuilder@2.6.2 </tspan>
<tspan x="10" y="298">  │   └── lodash@3.5.0 </tspan>
<tspan x="10" y="314">  ├─┬ event-stream@3.3.4 </tspan>
<tspan x="10" y="330">  │ ├── duplexer@0.1.1 </tspan>
<tspan x="10" y="346">  │ ├── from@0.1.7 </tspan>
<tspan x="10" y="362">  │ ├── map-stream@0.1.0 </tspan>
<tspan x="10" y="378">  │ ├── pause-stream@0.0.11 </tspan>
<tspan x="10" y="394">  │ ├── split@0.3.3 </tspan>
<tspan x="10" y="410">  │ ├── stream-combiner@0.0.4 </tspan>
<tspan x="10" y="426">  │ └── through@2.3.8 </tspan>
<tspan x="10" y="442">  ├─┬ gulp-util@3.0.8 </tspan>
<tspan x="10" y="458">  │ ├── array-differ@1.0.0 </tspan>
<tspan x="10" y="474">  │ ├── array-uniq@1.0.3 </tspan>
<tspan x="10" y="490">  │ ├── beeper@1.1.1 </tspan>
<tspan x="10" y="506">  │ ├─┬ chalk@1.1.3 </tspan>
<tspan x="10" y="522">  │ │ ├── ansi-styles@2.2.1 </tspan>
<tspan x="10" y="538">  │ │ ├── escape-string-regexp@1.0.5 </tspan>
<tspan x="10" y="554">  │ │ ├─┬ has-ansi@2.0.0 </tspan>
<tspan x="10" y="570">  │ │ │ └── ansi-regex@2.1.1 </tspan>
<tspan x="10" y="586">  │ │ ├── strip-ansi@3.0.1 </tspan>
<tspan x="10" y="602">  │ │ └── supports-color@2.0.0 </tspan>
<tspan x="10" y="618">  │ ├── dateformat@2.0.0 </tspan>
<tspan x="10" y="634">  │ ├─┬ fancy-log@1.3.0 </tspan>
<tspan x="10" y="650">  │ │ └── time-stamp@1.0.1 </tspan>
<tspan x="10" y="666">  │ ├─┬ gulplog@1.0.0 </tspan>
<tspan x="10" y="682">  │ │ └── glogg@1.0.0 </tspan>
<tspan x="10" y="698">  │ ├─┬ has-gulplog@0.1.0 </tspan>
<tspan x="10" y="714">  │ │ └── sparkles@1.0.0 </tspan>
<tspan x="10" y="730">  │ ├── lodash._reescape@3.0.0 </tspan>
<tspan x="10" y="746">  │ ├── lodash._reevaluate@3.0.0 </tspan>
<tspan x="10" y="762">  │ ├── lodash._reinterpolate@3.0.0 </tspan>
<tspan x="10" y="778">  │ ├─┬ lodash.template@3.6.2 </tspan>
<tspan x="10" y="794">  │ │ ├── lodash._basecopy@3.0.1 </tspan>
<tspan x="10" y="810">  │ │ ├── lodash._basetostring@3.0.1 </tspan>
<tspan x="10" y="826">  │ │ ├── lodash._basevalues@3.0.0 </tspan>
<tspan x="10" y="842">  │ │ ├── lodash._isiterateecall@3.0.9 </tspan>
<tspan x="10" y="858">  │ │ ├─┬ lodash.escape@3.2.0 </tspan>
<tspan x="10" y="874">  │ │ │ └── lodash._root@3.0.1 </tspan>
<tspan x="10" y="890">  │ │ ├─┬ lodash.keys@3.1.2 </tspan>
<tspan x="10" y="906">  │ │ │ ├── lodash._getnative@3.9.1 </tspan>
<tspan x="10" y="922">  │ │ │ ├── lodash.isarguments@3.1.0 </tspan>
<tspan x="10" y="938">  │ │ │ └── lodash.isarray@3.0.4 </tspan>
<tspan x="10" y="954">  │ │ ├── lodash.restparam@3.6.1 </tspan>
<tspan x="10" y="970">  │ │ └── lodash.templatesettings@3.1.1 </tspan>
<tspan x="10" y="986">  │ ├── minimist@1.2.0 </tspan>
<tspan x="10" y="1002">  │ ├─┬ multipipe@0.1.2 </tspan>
<tspan x="10" y="1018">  │ │ └─┬ duplexer2@0.0.2 </tspan>
<tspan x="10" y="1034">  │ │   └─┬ readable-stream@1.1.14 </tspan>
<tspan x="10" y="1050">  │ │     ├── isarray@0.0.1 </tspan>
<tspan x="10" y="1066">  │ │     └── string_decoder@0.10.31 </tspan>
<tspan x="10" y="1082">  │ ├── object-assign@3.0.0 </tspan>
<tspan x="10" y="1098">  │ ├── replace-ext@0.0.1 </tspan>
<tspan x="10" y="1114">  │ ├─┬ through2@2.0.3 </tspan>
<tspan x="10" y="1130">  │ │ ├─┬ readable-stream@2.2.9 </tspan>
<tspan x="10" y="1146">  │ │ │ ├── buffer-shims@1.0.0 </tspan>
<tspan x="10" y="1162">  │ │ │ ├── core-util-is@1.0.2 </tspan>
<tspan x="10" y="1178">  │ │ │ ├── inherits@2.0.3 </tspan>
<tspan x="10" y="1194">  │ │ │ ├── process-nextick-args@1.0.7 </tspan>
<tspan x="10" y="1210">  │ │ │ ├── string_decoder@1.0.0 </tspan>
<tspan x="10" y="1226">  │ │ │ └── util-deprecate@1.0.2 </tspan>
<tspan x="10" y="1242">  │ │ └── xtend@4.0.1 </tspan>
<tspan x="10" y="1258">  │ └─┬ vinyl@0.5.3 </tspan>
<tspan x="10" y="1274">  │   ├── clone@1.0.2 </tspan>
<tspan x="10" y="1290">  │   └── clone-stats@0.0.1 </tspan>
<tspan x="10" y="1306">  ├─┬ hasha@2.2.0 </tspan>
<tspan x="10" y="1322">  │ ├── is-stream@1.1.0 </tspan>
<tspan x="10" y="1338">  │ └─┬ pinkie-promise@2.0.1 </tspan>
<tspan x="10" y="1354">  │   └── pinkie@2.0.4 </tspan>
<tspan x="10" y="1370">  ├─┬ https-proxy-agent@1.0.0 </tspan>
<tspan x="10" y="1386">  │ ├─┬ agent-base@2.0.1 </tspan>
<tspan x="10" y="1402">  │ │ └── semver@5.0.3 </tspan>
<tspan x="10" y="1418">  │ ├─┬ debug@2.6.3 </tspan>
<tspan x="10" y="1434">  │ │ └── ms@0.7.2 </tspan>
<tspan x="10" y="1450">  │ └── extend@3.0.0 </tspan>
<tspan x="10" y="1466">  ├── mime@1.3.4 </tspan>
<tspan x="10" y="1482">  └── underscore@1.8.3</tspan>
</text>
</svg>
